<?xml version="1.0" encoding="UTF-8"?>
<svg data-bbox="0 0 1024 1024" viewBox="0 0 1024 1024" height="1024" width="1024" xmlns="http://www.w3.org/2000/svg" data-type="color">
    <g>
        <path d="M0 512V0h1024v1024H0zm76.5 468.45c-9.9-34.45-11.7-74-4.95-108.2 4.25-21.25 10.35-39.05 20.2-58.8 16-32.1 33.2-56.45 55.8-79 18.25-18.2 39.45-34.4 68.95-52.8 26.9-16.75 78.05-41.35 112.75-54.15 1.4-.55 5.65-2.1 9.45-3.5 6.65-2.45 29.5-10.05 72.05-24 25.45-8.3 37.55-12.8 51.75-19.1 4.25-1.9 8.55-3.8 9.5-4.25 21.7-9.65 52.45-29.6 74-48.1 19.4-16.65 39.7-38.05 59.3-62.55 18.45-23.05 37.25-53.95 50.85-83.5.7-1.5 2.3-5 3.6-7.75 1.25-2.75 3.45-7.7 4.85-11 1.35-3.3 3.15-7.5 3.95-9.35 5.05-11.55 16.85-46.9 19.2-57.35 1.4-6.2 1.4-6 .2-4.05-4.55 7.2-8.45 12.7-18.85 26.55-17.7 23.65-30 36.1-55.85 56.7-34.45 27.45-58.6 43.6-94.25 63.15-3.6 1.95-34.65 17.5-39.75 19.85-34.25 15.95-60.3 26.55-93.25 37.9-12.9 4.45-50.65 16.75-58.25 19.05-8.75 2.55-44.95 13.95-60 18.8-24.15 7.85-46.45 16.9-66 26.75C138.25 593.85 91.45 635 63.8 683.2c-9.8 17-17.8 37-22.8 56.95-4.8 19-7.35 34.15-8.75 51.6-2.05 25.7.15 54.9 6.55 86.65 5.95 29.6 15.6 58.4 30.05 89.85 3.35 7.25 8.75 17.8 9 17.6.05-.1-.55-2.5-1.35-5.4m155.15-48.7c11.2-2.95 19.3-11.8 22.35-24.3 3.4-13.9-.05-28.15-8.8-36.8-3.45-3.35-9.15-6.5-14.2-7.7-4.65-1.15-12.05-.85-17 .7-14.05 4.35-22.5 16.95-22.5 33.55.05 18.2 9.65 31.5 25.3 35 4.05.9 10.5.75 14.85-.45m128.1-.5c2.5-.7 5.5-1.8 6.7-2.4l2.25-1.1-.1-13.75c-.05-7.55-.1-14.45-.1-15.3v-1.55l-9.6-.3c-5.6-.15-10-.05-10.5.2-1.2.65-1.15 2.5.15 4.15 1 1.3 1.1 1.3 7.5 1.3h6.45l-.1 11.35-.15 11.4-4.25 1.1c-8.35 2.15-19.65 1.2-25.45-2.2-7.2-4.2-10.55-10.15-11.6-20.4-1.6-15.95 3.6-28.05 14.25-33.2 6.85-3.35 19.3-3.8 28.25-1.05 1.8.55 3.3.9 3.35.85s.25-1.15.45-2.5c.35-2.35.35-2.35-1.45-3.1-3.75-1.55-9-2.35-15.55-2.35-5.6 0-7.1.15-11 1.3-10.2 3.1-17.3 9-22 18.3-3.9 7.8-4.95 18.8-2.5 27.2 3.95 13.65 11.95 20.65 26.6 23.3 4.35.8 13.4.2 18.4-1.25m188.05 1.25c1.9-.25 5.5-1.1 7.95-1.85l4.45-1.45.6-2.85c.5-2.6.5-2.85-.25-2.55-6.2 2.65-9.5 3.4-15.5 3.6-3.65.1-7.4-.05-9.25-.4-10.05-2-16.85-8.95-19.1-19.6-1.15-5.45-.75-17.95.8-22.4 3.95-11.7 12.75-17.5 26.55-17.5 5.25 0 10.25.75 14.35 2.15l2 .7.3-2.5c.2-1.35.25-2.55.15-2.65-.1-.15-2.55-.8-5.4-1.5-14.25-3.55-28.45-.3-37 8.4-2.5 2.5-3.9 4.55-5.6 8-3.1 6.3-3.9 9.5-4.2 17.15-.3 7.75.65 12.55 3.8 19 2.2 4.4 6.85 9.45 11.05 11.9 6.5 3.75 15.95 5.45 24.3 4.35m-407.9-3.1-.15-2.65-15.1-.15-15.15-.1v-30.45c0-34 .3-31.45-3.7-31.9l-2.15-.25-.3 5.9c-.45 8.25-.45 57.5-.05 60.1l.35 2.1h36.4zm304.5-31.25-.15-33.9-3.1-.15-3.15-.15V932h6.5zM678 843.3c11.25-1.8 25.35-6 32.1-9.65l2.65-1.4.15-14.85.1-14.85-3.85 1.9c-11.1 5.55-26.4 9-39.75 9.05-15.7 0-24.6-3.05-32.2-11.15-5.75-6.1-9.65-15.5-9.7-23.2v-3.05l48.95.05c26.95.05 49.15-.05 49.35-.3.7-.65 1.15-15 .65-21.85-1.25-18.9-5.75-31.1-16.75-45.25-8.6-11.05-19.6-18.1-34.45-21.95-6-1.6-15.85-2.35-21.9-1.75-10.1 1-16.6 2.85-26.15 7.45-20.05 9.7-35.9 29.75-41.2 52.2-3.4 14.25-3.3 31.65.25 45.7 3.6 14.15 9.35 24.7 18.25 33.65 10.9 10.95 23.5 17 41 19.7 5.9.95 25.5.65 32.5-.45m133.3.5c15.75-2.1 27.65-6.55 37.6-14.05 6.9-5.15 11.3-10.5 14.25-17.25 3.35-7.7 4.15-21.3 1.65-28.4-1.05-2.95-4.05-8.8-5.9-11.55-2.6-3.7-8.05-8.85-12.5-11.75-7.45-4.85-12.85-7.25-27.85-12.35-10.45-3.6-15.9-6.05-19.35-8.8-3.3-2.65-4.2-4.6-4.2-9.05 0-5.3.4-6.55 2.95-9.1 4.15-4.1 11.15-6 22.35-6 7.6 0 14.45.8 20.75 2.5 4.2 1.05 11.1 3.5 13.45 4.75.8.4 1.55.75 1.75.75.15 0 .25-7.05.25-15.7 0-11.95-.15-15.8-.6-16.2-.75-.55-11.75-3.2-17.9-4.3-27.4-4.8-49.6-1.4-66.85 10.25-8.7 5.9-14.8 14.35-17.75 24.8-.9 3.2-1.1 5.2-1.1 10.9 0 4.3.25 8.05.65 9.7 2.8 11.2 10.1 20 22.2 26.95 5.5 3.15 8.4 4.3 22 8.9 15.85 5.35 22.1 8.45 24.9 12.35 1.4 1.9 1.45 2.25 1.45 7.2 0 5.8-.5 7.6-2.95 10-9.3 9.3-41.5 7.6-63.75-3.4-2.75-1.35-5.05-2.45-5.15-2.45s-.1 7.25-.05 16.1l.15 16.1 2 1.15c5.15 2.9 16 6 26.5 7.6 8.15 1.2 23.1 1.35 31.05.35m165.3-.5c2.4-.45 6.35-1.45 8.75-2.2l4.4-1.4.3-4.7c.45-6.2.55-26.2.15-27.2-.25-.7-.45-.7-1.8 0-3.75 1.95-14.25 2.85-19.4 1.65-5.5-1.25-9.65-5.8-11.5-12.65-1.05-3.75-1.1-4.95-1.15-39.2l-.1-35.35 3.25-.05c1.8-.05 9.85-.1 17.9-.15L992 722v-32.5h-36v-23.55c0-13-.1-23.7-.25-23.85-.45-.45-14.7 3.4-24 6.5-1.65.5-6.5 2.35-10.8 4.05l-7.85 3.05-.35 16.9-.35 16.9h-25.9V722h26v39.9c0 38.35.15 42.9 1.55 48.6 2.9 11.75 7.75 19.5 15.9 25.4 5.4 3.95 10.85 6.15 19.3 7.85 4.75.95 21.35.7 27.35-.45M564.5 766v-75.5H240.05l-5.15 4.35c-14.75 12.5-22.55 19.7-37.9 35.1-9.75 9.75-14 14.25-23.45 24.8-16.3 18.15-36.4 45.3-50.95 68.8-4.7 7.7-10.1 17.05-10.1 17.6 0 .2 101.7.35 226 .35h226zM15.4 654.5c5.35-9.05 9.85-15.85 16.3-24.45 2.8-3.7 5.5-7.3 6-8 6.15-8.2 17.85-22.05 24.55-29 11.2-11.7 34.9-31.5 54-45.15 19-13.55 51.3-32.7 73.75-43.75 27-13.25 34.55-16.9 39.1-18.85 2.85-1.2 8.65-3.75 12.9-5.7 9-4.05 22.7-9.7 34.5-14.1 16.4-6.2 62.9-22.75 71.5-25.5 1.5-.45 7.05-2.5 12.25-4.5l21-8c36.8-14.05 53.55-21.6 89.75-40.4 16.25-8.45 40.5-23.75 56.7-35.8 25.5-19 54.45-48.15 74.3-74.8 12-16.15 24.75-37.05 34-55.75 7.8-15.8 9.5-19.8 13.75-32.25 8.25-24.15 14.7-47.35 16-57.25.55-4.3 2.25-20.8 2.7-25.8.5-5.8-.05-15.4-1-18.35l-.6-1.85-.6 1.75c-.35 1-1.9 4.55-3.5 7.95-1.55 3.4-4.05 9.6-5.5 13.75-3.4 9.85-5.55 14.8-10.5 24.55-5.6 11.05-8.5 15.7-15.75 25.25-3.45 4.55-7.45 9.9-8.9 11.95-8.75 12.2-22.4 27.55-39.1 44.1-10.25 10.1-14.25 13.65-27.75 24.75-3 2.45-8.65 7.1-12.5 10.25-15.6 12.8-31.7 24.15-53.5 37.7-13.25 8.25-57.8 33-73.9 41.05-24.3 12.2-61.2 28-103.1 44.2-34.45 13.3-31.95 12.2-82.75 36-27 12.6-58.8 31.65-81.75 48.9-9 6.75-25.75 20.85-37 31.1-16.7 15.25-35.8 36.4-49 54.25-2.45 3.3-5.6 7.6-7 9.5-6.35 8.6-18.85 30.8-24.6 43.75-10.75 24.2-15.8 39.1-20.6 61-2.9 13.1-2.9 12.85-.45 8.5 1.1-2.05 3.95-7 6.3-11m307.4-351.55c7.6-3.2 18.2-7.85 25.7-11.3 4.45-2.05 11.35-5.1 17-7.5 18.25-7.8 32.35-14.65 52-25.25 15.5-8.4 36.2-21.75 49.8-32.2 17.9-13.75 30.95-25.8 42.5-39.2 13-15.1 25.4-31.45 24.5-32.35-.2-.2-420.2-.35-492.4-.15H35v151.5h279.4z" fill="#000000" data-color="1"/>
        <path d="M215.2 926.75q-11.625-3.675-15.6-17.85c-1.25-4.6-1.2-18.3.1-23.15 2.55-9.65 8.6-15.8 17.35-17.75 4.55-1 12.5-.45 16.45 1.2 5.95 2.4 10.4 7.4 12.9 14.5 1.2 3.3 1.3 4.2 1.3 13.05.05 8.6-.05 9.85-1.1 13.25-2.85 9-6.95 13.7-14.25 16.45-2.4.85-3.9 1.05-9 1-3.4-.05-7-.35-8.15-.7" fill="#000000" data-color="1"/>
        <path d="M626.65 747.4c1.2-14.9 9.75-26.65 22.1-30.5 4.75-1.5 14.9-1.6 19.65-.2 10.8 3.2 16.15 12.2 16.95 28.45l.3 5.85h-59.3z" fill="#000000" data-color="1"/>
        <path d="M82.2 998.1c-19.5-32.7-36.95-78.6-44.9-118.2-6.5-32-8.7-62.75-6.55-89.65 1.1-13.75 2.05-20.4 4.75-33.85 5.4-26.5 11.55-45.1 21.7-65.3 16.65-33.15 45.9-66.65 80.55-92.35 39.05-28.95 78.85-49.15 128.5-65.25 15.05-4.85 51.25-16.25 60-18.8 7.6-2.3 45.35-14.6 58.25-19.05 32.95-11.35 59-21.95 93.25-37.9 5.1-2.35 36.15-17.9 39.75-19.85 35.65-19.55 59.8-35.7 94.25-63.15 13.85-11.05 19.9-16.3 28.95-25.2 14.05-13.8 33.35-38.55 47.55-60.9 1.65-2.55 3.15-4.65 3.4-4.65 1 0-1.95 13.85-5.4 25.4-4.05 13.6-12.75 38.55-16.2 46.5-.8 1.85-2.6 6.05-3.95 9.35-1.4 3.3-3.6 8.25-4.85 11-1.3 2.75-2.9 6.25-3.6 7.75-13.6 29.55-32.4 60.45-50.85 83.5-23.1 28.85-45.75 52.05-68.55 70.1-20.75 16.4-45.95 32.2-64.75 40.55-.95.45-5.25 2.35-9.5 4.25-14.2 6.3-26.3 10.8-51.75 19.1-42.55 13.95-65.4 21.55-72.05 24-3.8 1.4-8.05 2.95-9.45 3.5-34.7 12.8-85.85 37.4-112.75 54.15-52.35 32.65-82.5 61.2-109.1 103.6-15.85 25.2-27.55 51.75-33.35 75.75-5.9 24.55-7.7 46.35-5.8 69.9 1.85 22.65 5.45 39.5 13.45 62.85 1.8 5.2 3.2 9.5 3.15 9.55s-1.95-2.95-4.15-6.7" fill="#fffefe" data-color="2"/>
        <path d="M215.3 933.7c-12.3-2.75-21-11.7-24.3-24.95-1.4-5.7-1.4-17.5 0-23 3-11.8 10.7-20.25 21.5-23.6 3.65-1.15 5.15-1.35 10.75-1.35 7.55-.05 10.35.5 16.15 3.3 11.55 5.5 18.25 19 17.45 35.1-.9 17.8-9.55 30.2-23.7 34.1-4.2 1.15-13.6 1.35-17.85.4m15.55-8.75c7.3-2.75 11.4-7.45 14.25-16.45 1-3.3 1.15-4.7 1.1-11.75 0-7.25-.15-8.35-1.3-11.55-3.45-9.75-10.5-15.4-19.95-16.05-11.6-.8-20.55 6.05-23.75 18.1-1.3 4.8-1.3 15.65-.1 20.15q3.975 14.175 15.6 17.85c3.45 1.1 10.8.9 14.15-.3" fill="#fffefe" data-color="2"/>
        <path d="M339.85 934c-14.65-2.65-22.65-9.65-26.6-23.3-1.7-5.9-1.8-16.35-.2-22.75 1.9-7.55 5.9-14.1 11.5-18.8 3.95-3.35 7.65-5.25 13.2-6.95 3.95-1.15 5.4-1.35 12-1.4 7.85-.05 12.45.6 17.15 2.3 2.45.9 2.65 1.1 2.4 2.3-.15.75-.4 2.65-.6 4.25-.15 1.55-.45 2.95-.65 3.05-.15.1-2.25-.45-4.65-1.2-9.4-3.1-19.65-2.9-26.7.55-3.8 1.85-8.2 5.9-10.3 9.5-5.45 9.25-5.55 24.55-.2 33.6 5.15 8.85 17.95 12.9 30.3 9.7l4.25-1.1.15-9.9.1-9.85h-6.45c-6.4 0-6.5 0-7.5-1.3-1.45-1.85-1.5-6.45-.05-7.2.95-.5 22.4-.2 23 .35.15.15.25 6.9.25 15.05.05 8.15.25 15.55.45 16.4.4 1.55.3 1.6-2.25 2.85-5.65 2.75-11.1 3.9-18.95 4.1-4 .1-8.35 0-9.65-.25" fill="#fffefe" data-color="2"/>
        <path d="M535.2 934c-3.75-.5-10.2-2.65-13.2-4.35-4.2-2.45-8.85-7.5-11.05-11.9-3.3-6.7-4.1-11.1-3.8-20.5.3-9.25.9-11.9 4.2-18.65 2.85-5.85 7.25-10.55 12.4-13.2 7-3.65 11.5-4.6 20.75-4.6 6.1.05 8.1.25 12.45 1.35 2.9.75 5.45 1.55 5.7 1.8.5.5-.5 7.45-1.2 8.25-.2.2-1.75-.05-3.45-.65-10.95-3.8-21.2-3.3-28.65 1.45-7.85 4.9-11.25 11.65-11.7 23-.3 7.5.5 11.85 3.05 17.2 6.1 12.7 22.75 16.55 38.5 8.85l3.8-1.85v2.3c-.05 1.25-.3 3.6-.65 5.25l-.65 2.95-4.45 1.45c-7 2.2-14.35 2.85-22.05 1.85" fill="#fffefe" data-color="2"/>
        <path d="M101.75 932.9c-.15-.35-.2-16.3-.15-35.4l.15-34.75h3.8c2.5 0 4.1.25 4.6.7.8.6.85 3.4.85 31.1V925l15.15.1 15.1.15.15 4.15.15 4.1h-19.8c-15.35 0-19.85-.15-20-.6" fill="#fffefe" data-color="2"/>
        <path d="M436.45 933.3c-.1-.1-.15-16.1-.05-35.55l.1-35.3 4.65.15 4.6.15.15 35.4.1 35.35h-4.65c-2.6 0-4.8-.1-4.9-.2" fill="#fffefe" data-color="2"/>
        <path d="M644 845.25c-17.45-2.7-30.1-8.75-41-19.7-8.9-8.95-14.65-19.5-18.25-33.65-3.6-14.3-3.7-34.15-.25-48.7 6.8-28.6 29.65-51.7 57.5-58.15 22.95-5.3 48.2.9 63.4 15.6 6.25 6 14 17.6 17.3 25.85 4.2 10.35 6.25 26.45 5.4 42.4-.25 4.45-.6 8.25-.8 8.5-.2.2-22.4.35-49.35.35H629v1.5c0 2.7 1.95 9.25 4 13.5 2.5 5.15 7.85 11.1 12.55 13.9 11.95 7.05 32.8 7.05 53.2 0 4.7-1.65 13.4-5.65 14.5-6.7.25-.25.65-.45.85-.45.25 0 .35 7.7.3 17.15l-.15 17.1-2.65 1.4c-6.75 3.65-20.8 7.85-32.1 9.65-7 1.1-29.45 1.4-35.5.45m39.85-99.85c-.75-11.9-4.5-20.25-10.85-24.35-4.15-2.7-8.2-3.75-14.25-3.75-16.1 0-27.75 11.45-30.5 29.9l-.35 2.3h56.25z" fill="#fffefe" data-color="2"/>
        <path d="M778.75 844.95c-10.5-1.6-21.35-4.7-26.5-7.6l-2-1.15-.15-18.6-.1-18.65 3.1 1.8c10.85 6.25 24 10.3 38.3 11.8 13.3 1.4 25.25-1.65 29.1-7.35 1.05-1.55 1.3-2.6 1.45-6.05.15-3.8.05-4.35-1.15-6.15-2.65-4-9.05-7.25-25.1-12.7-13.7-4.6-16.55-5.75-22.05-8.9-12.1-6.95-19.35-15.7-22.2-26.95-.45-1.8-.7-5.6-.7-11.2 0-7.3.2-9.05 1.15-12.4 3.85-13.35 11.75-22.4 25.9-29.5 15.55-7.8 37.45-9.8 61.7-5.55 6.15 1.1 17.15 3.75 17.9 4.3.45.4.6 4.6.6 17.9 0 9.5-.15 17.45-.3 17.6s-1.3-.1-2.6-.6-4.4-1.7-6.95-2.7c-19.1-7.4-40.9-7.05-48.7.7-2.35 2.35-2.95 3.9-2.95 7.6 0 6.25 5.8 10.25 23.55 16.35 15 5.1 20.4 7.5 27.85 12.35 4.45 2.9 9.9 8.05 12.5 11.8 2.35 3.4 5.5 9.95 6.3 13.05 1.6 6.15 1.45 17.5-.3 24.85-3.85 15.85-21.05 29.5-43.55 34.55-8.4 1.85-15 2.45-26.55 2.4-8.2-.05-12.75-.3-17.55-1" fill="#fffefe" data-color="2"/>
        <path d="M947.75 845.2c-8.3-1.55-13.85-3.8-19.3-7.8-8.15-5.9-13-13.65-15.9-25.4-1.4-5.7-1.55-10.25-1.55-48.6v-39.9h-26V688h25.9l.35-16.9.35-16.9 7.85-3.05c11.25-4.45 16.75-6.2 29.3-9.45 4.65-1.2 8.6-2.05 8.75-1.9s.2 11.05.1 24.25l-.2 23.95h36.1v35.5l-12.85.1c-7.1.05-15.15.1-17.9.1l-5 .05.15 33.95c.05 32.5.1 34.1 1.1 37.7 1.85 6.75 6.05 11.3 11.5 12.55 5.3 1.25 12.7.25 17.9-2.4 1.7-.85 3.2-1.55 3.3-1.55.15 0 .2 8.25.15 18.35l-.1 18.4-1.25.6c-2.6 1.25-10.15 3.15-15.5 3.9-6.85.95-22.25.95-27.25-.05" fill="#fffefe" data-color="2"/>
        <path d="M110 842.05c0-2.65 15.7-27.95 29.4-47.55 8.55-12.2 23.6-31.15 32.65-41.25 9.45-10.55 13.7-15.05 23.45-24.8 15.35-15.4 23.15-22.6 37.9-35.1l5.15-4.35H566v154H338c-225.25 0-228 0-228-.95" fill="#fffefe" data-color="2"/>
        <path d="M33.5 230.75V153.5l1.65-.05c10.25-.2 487.05-.15 493.75.05l9.1.25-2.3 3.75c-6.2 10-22.7 30.4-33.65 41.7-20.4 21-52.75 44.85-83.05 61.2-19.65 10.6-33.75 17.45-52 25.25-5.65 2.4-12.55 5.45-17 7.5-7.5 3.45-18.1 8.1-25.7 11.3l-8.4 3.55H33.5z" fill="#fffefe" data-color="2"/>
        <path d="M3.65 681c.15-.7.4-2.6.6-4.25 1.4-12.6 5.7-31.25 11.55-50.1C20.05 612.9 31.3 587.5 39 574c7.75-13.55 11.25-19.2 14.25-23.25 1.4-1.9 4.55-6.2 7-9.5 13.2-17.85 32.3-39 49-54.25 11.25-10.25 28-24.35 37-31.1C169.2 438.65 201 419.6 228 407c50.8-23.8 48.3-22.7 82.75-36 41.9-16.2 78.8-32 103.1-44.2 16.1-8.05 60.65-32.8 73.9-41.05 21.8-13.55 37.9-24.9 53.5-37.7 3.85-3.15 9.5-7.8 12.5-10.25 13.5-11.1 17.5-14.65 27.75-24.75 16.7-16.55 30.35-31.9 39.1-44.1 1.45-2.05 5.45-7.4 8.9-11.95 7.25-9.55 10.15-14.2 15.75-25.25 4.95-9.75 7.1-14.7 10.5-24.55 1.45-4.15 3.9-10.25 5.45-13.6 1.55-3.3 3.2-7.1 3.7-8.45 1-2.7 1.8-3 3.15-1.15 3 4.05 2.7 21.85-.8 48.75-1.65 12.65-14.2 54.75-21.35 71.75-7.05 16.75-21.05 42.3-32.75 59.8-18.45 27.55-41.6 53.1-70.65 77.95-16.55 14.15-47.7 34.8-70 46.35-36.2 18.8-52.95 26.35-89.75 40.4l-21 8c-5.2 2-10.75 4.05-12.25 4.5-8.6 2.75-55.1 19.3-71.5 25.5-11.8 4.4-25.5 10.05-34.5 14.1-4.25 1.95-10.05 4.5-12.9 5.7-4.55 1.95-12.1 5.6-39.1 18.85-22.45 11.05-54.75 30.2-73.75 43.75-19.1 13.65-42.8 33.45-54 45.15-6.7 6.95-18.4 20.8-24.55 29-.5.7-3.2 4.3-6 8-11.2 14.95-22.25 33.3-27.15 45.2-2.15 5.1-2.9 6.45-2.4 4.25" fill="#345bae" data-color="3"/>
    </g>
</svg>
